<?xml version="1.0" encoding="utf-8" standalone="no"?>
<!DOCTYPE svg PUBLIC "-//W3C//DTD SVG 1.1//EN"
  "http://www.w3.org/Graphics/SVG/1.1/DTD/svg11.dtd">
<!-- Created with matplotlib (https://matplotlib.org/) -->
<svg height="262.59pt" version="1.1" viewBox="0 0 381.825 262.59" width="381.825pt" xmlns="http://www.w3.org/2000/svg" xmlns:xlink="http://www.w3.org/1999/xlink">
 <defs>
  <style type="text/css">
*{stroke-linecap:butt;stroke-linejoin:round;}
  </style>
 </defs>
 <g id="figure_1">
  <g id="patch_1">
   <path d="M 0 262.59 
L 381.825 262.59 
L 381.825 0 
L 0 0 
z
" style="fill:#ffffff;"/>
  </g>
  <g id="axes_1">
   <g id="patch_2">
    <path d="M 36.325 228.14 
L 371.125 228.14 
L 371.125 10.7 
L 36.325 10.7 
z
" style="fill:#ffffff;"/>
   </g>
   <g id="matplotlib.axis_1">
    <g id="xtick_1">
     <g id="line2d_1">
      <defs>
       <path d="M 0 0 
L 0 3.5 
" id="ma165ef8482" style="stroke:#000000;stroke-width:0.8;"/>
      </defs>
      <g>
       <use style="stroke:#000000;stroke-width:0.8;" x="51.543182" xlink:href="#ma165ef8482" y="228.14"/>
      </g>
     </g>
     <g id="text_1">
      <!-- 0 -->
      <defs>
       <path d="M 3.125 29.296875 
Q 3.90625 50 6.4375 56.046875 
Q 8.984375 62.109375 13.671875 66.015625 
Q 18.359375 69.921875 25.1875 69.921875 
Q 32.03125 69.921875 37.109375 64.25 
Q 42.1875 58.59375 43.75 50 
Q 45.3125 41.40625 44.71875 30.265625 
Q 44.140625 19.140625 40.8125 12.109375 
Q 37.5 5.078125 30.859375 2.34375 
Q 24.21875 -0.390625 17.578125 2.921875 
Q 10.9375 6.25 8.203125 11.71875 
Q 5.46875 17.1875 4.296875 23.234375 
Q 3.125 29.296875 3.90625 50 
z
M 12.890625 52.734375 
Q 10.546875 31.25 12.5 22.84375 
Q 14.453125 14.453125 18.9375 10.9375 
Q 23.4375 7.421875 28.125 9.5625 
Q 32.8125 11.71875 34.953125 18.15625 
Q 37.109375 24.609375 37.109375 32.21875 
Q 37.109375 39.84375 36.515625 46.09375 
Q 35.9375 52.34375 33 57.421875 
Q 30.078125 62.5 25.1875 62.6875 
Q 20.3125 62.890625 16.59375 57.8125 
Q 12.890625 52.734375 10.546875 31.25 
z
" id="SimHei-48"/>
      </defs>
      <g transform="translate(49.043182 242.015)scale(0.1 -0.1)">
       <use xlink:href="#SimHei-48"/>
      </g>
     </g>
    </g>
    <g id="xtick_2">
     <g id="line2d_2">
      <g>
       <use style="stroke:#000000;stroke-width:0.8;" x="113.030785" xlink:href="#ma165ef8482" y="228.14"/>
      </g>
     </g>
     <g id="text_2">
      <!-- 20 -->
      <defs>
       <path d="M 4.6875 3.90625 
Q 5.078125 9.765625 10.15625 14.453125 
Q 15.234375 19.140625 23.046875 29.09375 
Q 30.859375 39.0625 33.203125 44.53125 
Q 35.546875 50 34.953125 53.90625 
Q 34.375 57.8125 31.25 60.34375 
Q 28.125 62.890625 24.015625 62.5 
Q 19.921875 62.109375 16.203125 59.375 
Q 12.5 56.640625 10.546875 51.171875 
L 3.125 52.34375 
Q 6.25 61.328125 11.125 65.421875 
Q 16.015625 69.53125 22.65625 69.921875 
Q 26.5625 70.3125 29.6875 69.71875 
Q 32.8125 69.140625 36.125 66.984375 
Q 39.453125 64.84375 41.59375 60.546875 
Q 43.75 56.25 43.15625 50.1875 
Q 42.578125 44.140625 37.109375 35.734375 
Q 31.640625 27.34375 16.015625 9.375 
L 44.140625 9.375 
L 44.140625 2.34375 
L 4.6875 2.34375 
z
" id="SimHei-50"/>
      </defs>
      <g transform="translate(108.030785 242.015)scale(0.1 -0.1)">
       <use xlink:href="#SimHei-50"/>
       <use x="50" xlink:href="#SimHei-48"/>
      </g>
     </g>
    </g>
    <g id="xtick_3">
     <g id="line2d_3">
      <g>
       <use style="stroke:#000000;stroke-width:0.8;" x="174.518388" xlink:href="#ma165ef8482" y="228.14"/>
      </g>
     </g>
     <g id="text_3">
      <!-- 40 -->
      <defs>
       <path d="M 31.25 17.1875 
L 1.171875 17.1875 
L 1.171875 23.828125 
L 32.8125 69.53125 
L 38.671875 69.53125 
L 38.671875 23.828125 
L 48.046875 23.828125 
L 48.046875 17.1875 
L 38.671875 17.1875 
L 38.671875 2.34375 
L 31.25 2.34375 
z
M 31.25 23.828125 
L 31.25 54.6875 
L 9.375 23.828125 
z
" id="SimHei-52"/>
      </defs>
      <g transform="translate(169.518388 242.015)scale(0.1 -0.1)">
       <use xlink:href="#SimHei-52"/>
       <use x="50" xlink:href="#SimHei-48"/>
      </g>
     </g>
    </g>
    <g id="xtick_4">
     <g id="line2d_4">
      <g>
       <use style="stroke:#000000;stroke-width:0.8;" x="236.005992" xlink:href="#ma165ef8482" y="228.14"/>
      </g>
     </g>
     <g id="text_4">
      <!-- 60 -->
      <defs>
       <path d="M 3.515625 19.53125 
Q 4.296875 30.859375 6.046875 34.765625 
Q 7.8125 38.671875 11.328125 44.53125 
L 27.34375 69.53125 
L 36.328125 69.53125 
L 19.921875 43.75 
Q 30.46875 46.484375 36.71875 42.96875 
Q 42.96875 39.453125 45.109375 34.953125 
Q 47.265625 30.46875 47.453125 25.1875 
Q 47.65625 19.921875 45.890625 14.84375 
Q 44.140625 9.765625 39.640625 5.65625 
Q 35.15625 1.5625 27.140625 1.171875 
Q 19.140625 0.78125 13.46875 4.09375 
Q 7.8125 7.421875 5.65625 13.46875 
Q 3.515625 19.53125 4.296875 30.859375 
z
M 12.5 16.015625 
Q 19.53125 8.59375 25.390625 8.203125 
Q 31.25 7.8125 35.15625 12.109375 
Q 39.0625 16.40625 39.0625 24.609375 
Q 39.0625 32.8125 34.171875 35.9375 
Q 29.296875 39.0625 23.234375 38.28125 
Q 17.1875 37.5 14.453125 32.421875 
Q 11.71875 27.34375 12.109375 21.671875 
Q 12.5 16.015625 19.53125 8.59375 
z
" id="SimHei-54"/>
      </defs>
      <g transform="translate(231.005992 242.015)scale(0.1 -0.1)">
       <use xlink:href="#SimHei-54"/>
       <use x="50" xlink:href="#SimHei-48"/>
      </g>
     </g>
    </g>
    <g id="xtick_5">
     <g id="line2d_5">
      <g>
       <use style="stroke:#000000;stroke-width:0.8;" x="297.493595" xlink:href="#ma165ef8482" y="228.14"/>
      </g>
     </g>
     <g id="text_5">
      <!-- 80 -->
      <defs>
       <path d="M 2.734375 16.796875 
Q 2.734375 26.171875 5.078125 30.65625 
Q 7.421875 35.15625 12.890625 37.890625 
Q 8.203125 40.625 6.640625 43.9375 
Q 5.078125 47.265625 4.875 51.5625 
Q 4.6875 55.859375 6.046875 58.984375 
Q 7.421875 62.109375 10.15625 64.84375 
Q 12.890625 67.578125 16.203125 68.546875 
Q 19.53125 69.53125 23.4375 69.53125 
Q 27.34375 69.53125 30.46875 68.75 
Q 33.59375 67.96875 37.109375 65.421875 
Q 40.625 62.890625 42.1875 58.203125 
Q 43.75 53.515625 41.984375 47.265625 
Q 40.234375 41.015625 32.8125 37.5 
Q 39.453125 35.546875 42.1875 31.4375 
Q 44.921875 27.34375 44.921875 21.484375 
Q 44.921875 15.625 43.15625 12.109375 
Q 41.40625 8.59375 39.25 6.25 
Q 37.109375 3.90625 33.390625 2.53125 
Q 29.6875 1.171875 24.015625 1.171875 
Q 18.359375 1.171875 14.25 2.53125 
Q 10.15625 3.90625 7.421875 6.640625 
Q 4.6875 9.375 3.703125 13.078125 
Q 2.734375 16.796875 2.734375 26.171875 
z
M 10.9375 26.5625 
Q 10.546875 17.1875 12.296875 13.671875 
Q 14.0625 10.15625 18.75 9.171875 
Q 23.4375 8.203125 28.515625 9.375 
Q 33.59375 10.546875 35.546875 14.84375 
Q 37.5 19.140625 36.90625 23.4375 
Q 36.328125 27.734375 32.03125 30.65625 
Q 27.734375 33.59375 22.65625 33.203125 
Q 17.578125 32.8125 14.25 29.6875 
Q 10.9375 26.5625 10.546875 17.1875 
z
M 12.109375 56.25 
Q 12.109375 48.4375 14.84375 44.921875 
Q 17.578125 41.40625 23.4375 41.40625 
Q 29.296875 41.40625 32.21875 44.921875 
Q 35.15625 48.4375 34.953125 53.3125 
Q 34.765625 58.203125 31.4375 60.546875 
Q 28.125 62.890625 22.453125 62.5 
Q 16.796875 62.109375 14.453125 59.171875 
Q 12.109375 56.25 12.109375 48.4375 
z
" id="SimHei-56"/>
      </defs>
      <g transform="translate(292.493595 242.015)scale(0.1 -0.1)">
       <use xlink:href="#SimHei-56"/>
       <use x="50" xlink:href="#SimHei-48"/>
      </g>
     </g>
    </g>
    <g id="xtick_6">
     <g id="line2d_6">
      <g>
       <use style="stroke:#000000;stroke-width:0.8;" x="358.981198" xlink:href="#ma165ef8482" y="228.14"/>
      </g>
     </g>
     <g id="text_6">
      <!-- 100 -->
      <defs>
       <path d="M 21.875 56.25 
Q 16.796875 51.171875 8.984375 46.484375 
L 8.984375 53.90625 
Q 18.75 60.546875 25 69.53125 
L 29.6875 69.53125 
L 29.6875 2.34375 
L 21.875 2.34375 
z
" id="SimHei-49"/>
      </defs>
      <g transform="translate(351.481198 242.015)scale(0.1 -0.1)">
       <use xlink:href="#SimHei-49"/>
       <use x="50" xlink:href="#SimHei-48"/>
       <use x="100" xlink:href="#SimHei-48"/>
      </g>
     </g>
    </g>
    <g id="text_7">
     <!-- Number of Generation -->
     <defs>
      <path d="M 44.53125 1.953125 
L 34.765625 1.953125 
L 13.28125 50.390625 
L 12.890625 50.390625 
L 12.890625 1.953125 
L 3.90625 1.953125 
L 3.90625 68.75 
L 13.671875 68.75 
L 35.15625 20.3125 
L 35.546875 20.3125 
L 35.546875 68.75 
L 44.53125 68.75 
z
" id="SimHei-78"/>
      <path d="M 43.75 1.953125 
L 35.9375 1.953125 
L 35.9375 10.15625 
Q 32.8125 5.859375 29.09375 3.515625 
Q 25.390625 1.171875 19.53125 1.171875 
Q 12.5 1.171875 8.984375 5.078125 
Q 5.46875 8.984375 5.46875 14.84375 
L 5.46875 45.703125 
L 13.28125 45.703125 
L 13.28125 17.578125 
Q 13.28125 12.890625 15.625 10.15625 
Q 17.96875 7.421875 21.875 7.421875 
Q 26.953125 7.421875 31.4375 12.6875 
Q 35.9375 17.96875 35.9375 25.78125 
L 35.9375 45.703125 
L 43.75 45.703125 
z
" id="SimHei-117"/>
      <path d="M 47.65625 1.953125 
L 39.84375 1.953125 
L 39.84375 33.59375 
Q 39.84375 35.9375 39.0625 37.5 
Q 38.28125 39.0625 35.9375 39.0625 
Q 33.203125 39.0625 30.859375 36.125 
Q 28.515625 33.203125 28.515625 28.515625 
L 28.515625 1.953125 
L 20.703125 1.953125 
L 20.703125 33.59375 
Q 20.703125 35.9375 19.921875 37.5 
Q 19.140625 39.0625 16.796875 39.0625 
Q 14.0625 39.0625 11.71875 36.125 
Q 9.375 33.203125 9.375 28.515625 
L 9.375 1.953125 
L 1.5625 1.953125 
L 1.5625 45.703125 
L 9.375 45.703125 
L 9.375 39.84375 
Q 11.328125 42.96875 14.0625 44.71875 
Q 16.796875 46.484375 19.921875 46.484375 
Q 23.046875 46.484375 25.1875 44.71875 
Q 27.34375 42.96875 28.125 39.84375 
Q 30.078125 42.96875 32.609375 44.71875 
Q 35.15625 46.484375 38.28125 46.484375 
Q 42.96875 46.484375 45.3125 43.9375 
Q 47.65625 41.40625 47.65625 36.71875 
z
" id="SimHei-109"/>
      <path d="M 44.140625 23.828125 
Q 44.140625 12.5 38.671875 6.828125 
Q 33.203125 1.171875 25.390625 1.171875 
Q 21.09375 1.171875 17.96875 2.734375 
Q 14.84375 4.296875 12.5 7.8125 
L 12.5 1.953125 
L 4.6875 1.953125 
L 4.6875 68.75 
L 12.5 68.75 
L 12.5 39.84375 
Q 14.84375 43.359375 17.96875 45.109375 
Q 21.09375 46.875 25.390625 46.875 
Q 33.203125 46.875 38.671875 41.015625 
Q 44.140625 35.15625 44.140625 23.828125 
z
M 35.546875 23.828125 
Q 35.546875 31.25 32.609375 35.546875 
Q 29.6875 39.84375 23.828125 39.84375 
Q 19.140625 39.84375 15.8125 35.546875 
Q 12.5 31.25 12.5 23.828125 
Q 12.5 16.40625 15.8125 12.296875 
Q 19.140625 8.203125 23.828125 8.203125 
Q 29.6875 8.203125 32.609375 12.296875 
Q 35.546875 16.40625 35.546875 23.828125 
z
" id="SimHei-98"/>
      <path d="M 44.53125 16.796875 
Q 43.75 9.765625 38.28125 5.46875 
Q 32.8125 1.171875 25.390625 1.171875 
Q 16.015625 1.171875 9.953125 7.21875 
Q 3.90625 13.28125 3.90625 23.828125 
Q 3.90625 34.375 9.953125 40.421875 
Q 16.015625 46.484375 25.390625 46.484375 
Q 33.59375 46.484375 38.859375 41.203125 
Q 44.140625 35.9375 44.140625 23.828125 
L 12.5 23.828125 
Q 12.5 15.234375 16.203125 11.71875 
Q 19.921875 8.203125 25.390625 8.203125 
Q 29.6875 8.203125 32.421875 10.34375 
Q 35.15625 12.5 35.9375 16.796875 
z
M 35.15625 30.078125 
Q 34.375 35.546875 31.640625 37.6875 
Q 28.90625 39.84375 24.609375 39.84375 
Q 20.703125 39.84375 17.578125 37.6875 
Q 14.453125 35.546875 12.890625 30.078125 
z
" id="SimHei-101"/>
      <path d="M 39.0625 37.890625 
Q 31.640625 39.0625 26.5625 35.734375 
Q 21.484375 32.421875 17.96875 24.21875 
L 17.96875 1.953125 
L 10.15625 1.953125 
L 10.15625 45.703125 
L 17.96875 45.703125 
L 17.96875 34.375 
Q 21.484375 40.625 26.75 43.546875 
Q 32.03125 46.484375 39.0625 46.484375 
z
" id="SimHei-114"/>
      <path id="SimHei-32"/>
      <path d="M 45.703125 23.828125 
Q 45.703125 13.671875 39.453125 7.421875 
Q 33.203125 1.171875 24.609375 1.171875 
Q 16.015625 1.171875 9.765625 7.421875 
Q 3.515625 13.671875 3.515625 23.828125 
Q 3.515625 33.984375 9.765625 40.234375 
Q 16.015625 46.484375 24.609375 46.484375 
Q 33.203125 46.484375 39.453125 40.234375 
Q 45.703125 33.984375 45.703125 23.828125 
z
M 37.109375 23.828125 
Q 37.109375 31.640625 33.203125 35.546875 
Q 29.296875 39.453125 24.609375 39.453125 
Q 19.921875 39.453125 16.015625 35.546875 
Q 12.109375 31.640625 12.109375 23.828125 
Q 12.109375 16.015625 16.015625 12.109375 
Q 19.921875 8.203125 24.609375 8.203125 
Q 29.296875 8.203125 33.203125 12.109375 
Q 37.109375 16.015625 37.109375 23.828125 
z
" id="SimHei-111"/>
      <path d="M 44.53125 59.765625 
Q 42.578125 60.9375 39.84375 61.71875 
Q 37.109375 62.5 32.8125 62.5 
Q 28.515625 62.5 26.953125 60.34375 
Q 25.390625 58.203125 25.390625 55.078125 
L 25.390625 45.703125 
L 41.40625 45.703125 
L 41.40625 39.453125 
L 25.390625 39.453125 
L 25.390625 1.953125 
L 17.578125 1.953125 
L 17.578125 39.453125 
L 4.296875 39.453125 
L 4.296875 45.703125 
L 17.578125 45.703125 
L 17.578125 54.6875 
Q 17.578125 61.71875 21.875 65.625 
Q 26.171875 69.53125 33.203125 69.53125 
Q 37.5 69.53125 40.03125 68.9375 
Q 42.578125 68.359375 44.53125 67.578125 
z
" id="SimHei-102"/>
      <path d="M 44.53125 1.171875 
L 37.890625 1.171875 
L 36.71875 6.640625 
Q 35.15625 4.296875 31.828125 2.734375 
Q 28.515625 1.171875 24.609375 1.171875 
Q 16.40625 1.171875 9.953125 8.78125 
Q 3.515625 16.40625 3.515625 33.203125 
Q 3.515625 51.5625 9.375 60.546875 
Q 15.234375 69.53125 25.390625 69.53125 
Q 34.375 69.53125 39.453125 62.890625 
Q 44.53125 56.25 44.53125 45.703125 
L 35.9375 45.703125 
Q 35.9375 53.90625 33.203125 58 
Q 30.46875 62.109375 25.390625 62.109375 
Q 19.140625 62.109375 16.015625 55.65625 
Q 12.890625 49.21875 12.890625 33.984375 
Q 12.890625 19.53125 16.796875 14.0625 
Q 20.703125 8.59375 25.78125 8.59375 
Q 30.859375 8.59375 33.78125 12.296875 
Q 36.71875 16.015625 36.71875 23.828125 
L 36.71875 28.125 
L 24.609375 28.125 
L 24.609375 35.546875 
L 44.53125 35.546875 
z
" id="SimHei-71"/>
      <path d="M 43.75 1.953125 
L 35.9375 1.953125 
L 35.9375 30.078125 
Q 35.9375 34.765625 33.59375 37.5 
Q 31.25 40.234375 27.34375 40.234375 
Q 22.265625 40.234375 17.765625 34.953125 
Q 13.28125 29.6875 13.28125 21.875 
L 13.28125 1.953125 
L 5.46875 1.953125 
L 5.46875 45.703125 
L 13.28125 45.703125 
L 13.28125 37.5 
Q 16.40625 41.796875 20.109375 44.140625 
Q 23.828125 46.484375 29.6875 46.484375 
Q 36.71875 46.484375 40.234375 42.578125 
Q 43.75 38.671875 43.75 32.8125 
z
" id="SimHei-110"/>
      <path d="M 44.921875 1.953125 
L 35.546875 1.953125 
Q 34.765625 2.734375 34.375 4.09375 
Q 33.984375 5.46875 33.984375 7.421875 
Q 31.25 4.296875 27.34375 2.734375 
Q 23.4375 1.171875 19.140625 1.171875 
Q 12.890625 1.171875 8.59375 4.296875 
Q 4.296875 7.421875 4.296875 13.28125 
Q 4.296875 19.140625 8.203125 22.65625 
Q 12.109375 26.171875 20.3125 27.34375 
Q 25.78125 28.125 29.875 29.296875 
Q 33.984375 30.46875 33.984375 32.421875 
Q 33.984375 34.765625 32.21875 37.109375 
Q 30.46875 39.453125 24.609375 39.453125 
Q 19.921875 39.453125 17.765625 37.6875 
Q 15.625 35.9375 14.84375 32.8125 
L 6.25 32.8125 
Q 7.03125 39.0625 11.90625 42.765625 
Q 16.796875 46.484375 24.609375 46.484375 
Q 33.203125 46.484375 37.5 42.578125 
Q 41.796875 38.671875 41.796875 31.640625 
L 41.796875 10.15625 
Q 41.796875 7.8125 42.578125 5.859375 
Q 43.359375 3.90625 44.921875 1.953125 
z
M 33.984375 16.40625 
L 33.984375 24.21875 
Q 31.640625 23.4375 29.484375 22.84375 
Q 27.34375 22.265625 22.265625 21.484375 
Q 16.40625 20.703125 14.640625 18.75 
Q 12.890625 16.796875 12.890625 14.0625 
Q 12.890625 11.71875 14.640625 9.953125 
Q 16.40625 8.203125 19.921875 8.203125 
Q 23.4375 8.203125 27.53125 10.15625 
Q 31.640625 12.109375 33.984375 16.40625 
z
" id="SimHei-97"/>
      <path d="M 42.96875 3.125 
Q 41.015625 2.34375 38.46875 1.75 
Q 35.9375 1.171875 31.640625 1.171875 
Q 24.609375 1.171875 20.3125 5.078125 
Q 16.015625 8.984375 16.015625 16.015625 
L 16.015625 39.453125 
L 2.734375 39.453125 
L 2.734375 45.703125 
L 16.015625 45.703125 
L 16.015625 60.9375 
L 23.828125 60.9375 
L 23.828125 45.703125 
L 39.84375 45.703125 
L 39.84375 39.453125 
L 23.828125 39.453125 
L 23.828125 15.625 
Q 23.828125 12.5 25.390625 10.34375 
Q 26.953125 8.203125 31.25 8.203125 
Q 35.546875 8.203125 38.28125 8.984375 
Q 41.015625 9.765625 42.96875 10.9375 
z
" id="SimHei-116"/>
      <path d="M 28.125 58.203125 
L 20.3125 58.203125 
L 20.3125 68.359375 
L 28.125 68.359375 
z
M 28.125 1.953125 
L 20.3125 1.953125 
L 20.3125 45.703125 
L 28.125 45.703125 
z
" id="SimHei-105"/>
     </defs>
     <g transform="translate(153.725 254.14)scale(0.1 -0.1)">
      <use xlink:href="#SimHei-78"/>
      <use x="50" xlink:href="#SimHei-117"/>
      <use x="100" xlink:href="#SimHei-109"/>
      <use x="150" xlink:href="#SimHei-98"/>
      <use x="200" xlink:href="#SimHei-101"/>
      <use x="250" xlink:href="#SimHei-114"/>
      <use x="300" xlink:href="#SimHei-32"/>
      <use x="350" xlink:href="#SimHei-111"/>
      <use x="400" xlink:href="#SimHei-102"/>
      <use x="450" xlink:href="#SimHei-32"/>
      <use x="500" xlink:href="#SimHei-71"/>
      <use x="550" xlink:href="#SimHei-101"/>
      <use x="600" xlink:href="#SimHei-110"/>
      <use x="650" xlink:href="#SimHei-101"/>
      <use x="700" xlink:href="#SimHei-114"/>
      <use x="750" xlink:href="#SimHei-97"/>
      <use x="800" xlink:href="#SimHei-116"/>
      <use x="850" xlink:href="#SimHei-105"/>
      <use x="900" xlink:href="#SimHei-111"/>
      <use x="950" xlink:href="#SimHei-110"/>
     </g>
    </g>
   </g>
   <g id="matplotlib.axis_2">
    <g id="ytick_1">
     <g id="line2d_7">
      <defs>
       <path d="M 0 0 
L -3.5 0 
" id="m18f35a5990" style="stroke:#000000;stroke-width:0.8;"/>
      </defs>
      <g>
       <use style="stroke:#000000;stroke-width:0.8;" x="36.325" xlink:href="#m18f35a5990" y="206.098963"/>
      </g>
     </g>
     <g id="text_8">
      <!-- 0 -->
      <g transform="translate(24.325 209.536463)scale(0.1 -0.1)">
       <use xlink:href="#SimHei-48"/>
      </g>
     </g>
    </g>
    <g id="ytick_2">
     <g id="line2d_8">
      <g>
       <use style="stroke:#000000;stroke-width:0.8;" x="36.325" xlink:href="#m18f35a5990" y="174.326906"/>
      </g>
     </g>
     <g id="text_9">
      <!-- 5 -->
      <defs>
       <path d="M 8.59375 20.703125 
Q 11.328125 10.15625 17.96875 8.984375 
Q 24.609375 7.8125 28.703125 10.34375 
Q 32.8125 12.890625 34.5625 16.984375 
Q 36.328125 21.09375 36.125 26.171875 
Q 35.9375 31.25 33.390625 34.765625 
Q 30.859375 38.28125 26.953125 39.453125 
Q 23.046875 40.625 18.15625 39.453125 
Q 13.28125 38.28125 10.15625 33.984375 
L 3.515625 34.765625 
Q 4.296875 37.109375 10.9375 68.359375 
L 41.796875 68.359375 
L 41.796875 61.328125 
L 16.796875 61.328125 
Q 14.84375 50.78125 12.890625 44.53125 
Q 18.75 47.265625 23.828125 47.0625 
Q 28.90625 46.875 33.59375 44.71875 
Q 38.28125 42.578125 40.421875 38.859375 
Q 42.578125 35.15625 43.546875 31.4375 
Q 44.53125 27.734375 44.328125 23.4375 
Q 44.140625 19.140625 42.578125 14.640625 
Q 41.015625 10.15625 37.890625 7.21875 
Q 34.765625 4.296875 30.265625 2.53125 
Q 25.78125 0.78125 19.921875 1.171875 
Q 14.0625 1.5625 8.78125 5.46875 
Q 3.515625 9.375 1.5625 18.75 
z
" id="SimHei-53"/>
      </defs>
      <g transform="translate(24.325 177.764406)scale(0.1 -0.1)">
       <use xlink:href="#SimHei-53"/>
      </g>
     </g>
    </g>
    <g id="ytick_3">
     <g id="line2d_9">
      <g>
       <use style="stroke:#000000;stroke-width:0.8;" x="36.325" xlink:href="#m18f35a5990" y="142.554849"/>
      </g>
     </g>
     <g id="text_10">
      <!-- 10 -->
      <g transform="translate(19.325 145.992349)scale(0.1 -0.1)">
       <use xlink:href="#SimHei-49"/>
       <use x="50" xlink:href="#SimHei-48"/>
      </g>
     </g>
    </g>
    <g id="ytick_4">
     <g id="line2d_10">
      <g>
       <use style="stroke:#000000;stroke-width:0.8;" x="36.325" xlink:href="#m18f35a5990" y="110.782793"/>
      </g>
     </g>
     <g id="text_11">
      <!-- 15 -->
      <g transform="translate(19.325 114.220293)scale(0.1 -0.1)">
       <use xlink:href="#SimHei-49"/>
       <use x="50" xlink:href="#SimHei-53"/>
      </g>
     </g>
    </g>
    <g id="ytick_5">
     <g id="line2d_11">
      <g>
       <use style="stroke:#000000;stroke-width:0.8;" x="36.325" xlink:href="#m18f35a5990" y="79.010736"/>
      </g>
     </g>
     <g id="text_12">
      <!-- 20 -->
      <g transform="translate(19.325 82.448236)scale(0.1 -0.1)">
       <use xlink:href="#SimHei-50"/>
       <use x="50" xlink:href="#SimHei-48"/>
      </g>
     </g>
    </g>
    <g id="ytick_6">
     <g id="line2d_12">
      <g>
       <use style="stroke:#000000;stroke-width:0.8;" x="36.325" xlink:href="#m18f35a5990" y="47.23868"/>
      </g>
     </g>
     <g id="text_13">
      <!-- 25 -->
      <g transform="translate(19.325 50.67618)scale(0.1 -0.1)">
       <use xlink:href="#SimHei-50"/>
       <use x="50" xlink:href="#SimHei-53"/>
      </g>
     </g>
    </g>
    <g id="ytick_7">
     <g id="line2d_13">
      <g>
       <use style="stroke:#000000;stroke-width:0.8;" x="36.325" xlink:href="#m18f35a5990" y="15.466623"/>
      </g>
     </g>
     <g id="text_14">
      <!-- 30 -->
      <defs>
       <path d="M 3.90625 19.140625 
L 10.9375 20.3125 
Q 12.5 15.234375 16.015625 11.90625 
Q 19.53125 8.59375 24.796875 8.78125 
Q 30.078125 8.984375 33.203125 13.078125 
Q 36.328125 17.1875 35.9375 22.453125 
Q 35.546875 27.734375 31.828125 30.65625 
Q 28.125 33.59375 19.921875 34.765625 
L 19.921875 39.84375 
Q 28.125 40.625 31.828125 44.140625 
Q 35.546875 47.65625 35.15625 53.3125 
Q 34.765625 58.984375 30.078125 61.515625 
Q 25.390625 64.0625 20.109375 62.109375 
Q 14.84375 60.15625 11.71875 51.171875 
L 4.6875 52.34375 
Q 7.03125 59.375 11.125 64.0625 
Q 15.234375 68.75 22.265625 69.53125 
Q 29.296875 70.3125 34.5625 67.765625 
Q 39.84375 65.234375 41.984375 59.953125 
Q 44.140625 54.6875 42.578125 48.4375 
Q 41.015625 42.1875 33.59375 37.5 
Q 39.0625 35.15625 41.984375 30.46875 
Q 44.921875 25.78125 43.9375 18.15625 
Q 42.96875 10.546875 37.109375 5.859375 
Q 31.25 1.171875 23.828125 1.359375 
Q 16.40625 1.5625 10.9375 6.046875 
Q 5.46875 10.546875 3.90625 19.140625 
z
" id="SimHei-51"/>
      </defs>
      <g transform="translate(19.325 18.904123)scale(0.1 -0.1)">
       <use xlink:href="#SimHei-51"/>
       <use x="50" xlink:href="#SimHei-48"/>
      </g>
     </g>
    </g>
    <g id="text_15">
     <!-- Value -->
     <defs>
      <path d="M 47.65625 68.75 
L 28.125 1.171875 
L 20.3125 1.171875 
L 0.78125 68.75 
L 10.15625 68.75 
L 23.828125 17.578125 
L 24.609375 17.578125 
L 38.28125 68.75 
z
" id="SimHei-86"/>
      <path d="M 28.515625 1.953125 
L 20.703125 1.953125 
L 20.703125 68.75 
L 28.515625 68.75 
z
" id="SimHei-108"/>
     </defs>
     <g transform="translate(14.075 131.92)rotate(-90)scale(0.1 -0.1)">
      <use xlink:href="#SimHei-86"/>
      <use x="50" xlink:href="#SimHei-97"/>
      <use x="100" xlink:href="#SimHei-108"/>
      <use x="150" xlink:href="#SimHei-117"/>
      <use x="200" xlink:href="#SimHei-101"/>
     </g>
    </g>
   </g>
   <g id="line2d_14">
    <path clip-path="url(#pb97c3c6e92)" d="M 51.543182 206.098963 
L 54.617562 206.098963 
L 57.691942 206.098963 
L 60.766322 206.098963 
L 63.840702 206.098963 
L 66.915083 206.098963 
L 69.989463 206.098963 
L 73.063843 206.098963 
L 76.138223 206.098963 
L 79.212603 206.098963 
L 82.286983 206.098963 
L 85.361364 206.098963 
L 88.435744 206.098963 
L 91.510124 206.098963 
L 94.584504 206.098963 
L 97.658884 206.098963 
L 100.733264 206.098963 
L 103.807645 206.098963 
L 106.882025 206.098963 
L 109.956405 206.098963 
L 113.030785 206.098963 
L 116.105165 206.098963 
L 119.179545 206.098963 
L 122.253926 206.098963 
L 125.328306 206.098963 
L 128.402686 206.098963 
L 131.477066 206.098963 
L 134.551446 206.098963 
L 137.625826 206.098963 
L 140.700207 206.098963 
L 143.774587 206.098963 
L 146.848967 206.098963 
L 149.923347 206.098963 
L 152.997727 206.098963 
L 156.072107 206.098963 
L 159.146488 206.098963 
L 162.220868 206.098963 
L 165.295248 206.098963 
L 168.369628 206.098963 
L 171.444008 206.098963 
L 174.518388 206.098963 
L 177.592769 206.098963 
L 180.667149 206.098963 
L 183.741529 206.098963 
L 186.815909 206.098963 
L 189.890289 206.098963 
L 192.964669 206.098963 
L 196.03905 206.098963 
L 199.11343 206.098963 
L 202.18781 206.098963 
L 205.26219 206.098963 
L 208.33657 206.098963 
L 211.41095 206.098963 
L 214.485331 206.098963 
L 217.559711 206.098963 
L 220.634091 206.098963 
L 223.708471 206.098963 
L 226.782851 206.098963 
L 229.857231 206.098963 
L 232.931612 206.098963 
L 236.005992 206.098963 
L 239.080372 206.098963 
L 242.154752 206.098963 
L 245.229132 206.098963 
L 248.303512 206.098963 
L 251.377893 206.098963 
L 254.452273 206.098963 
L 257.526653 206.098963 
L 260.601033 206.098963 
L 263.675413 206.098963 
L 266.749793 206.098963 
L 269.824174 206.098963 
L 272.898554 206.098963 
L 275.972934 206.098963 
L 279.047314 206.098963 
L 282.121694 206.098963 
L 285.196074 206.098963 
L 288.270455 206.098963 
L 291.344835 206.098963 
L 294.419215 206.098963 
L 297.493595 206.098963 
L 300.567975 206.098963 
L 303.642355 206.098963 
L 306.716736 206.098963 
L 309.791116 206.098963 
L 312.865496 206.098963 
L 315.939876 206.098963 
L 319.014256 206.098963 
L 322.088636 206.098963 
L 325.163017 206.098963 
L 328.237397 206.098963 
L 331.311777 206.098963 
L 334.386157 206.098963 
L 337.460537 206.098963 
L 340.534917 206.098963 
L 343.609298 206.098963 
L 346.683678 206.098963 
L 349.758058 206.098963 
L 352.832438 206.098963 
L 355.906818 206.098963 
" style="fill:none;stroke:#1f77b4;stroke-linecap:square;stroke-width:1.5;"/>
   </g>
   <g id="line2d_15">
    <path clip-path="url(#pb97c3c6e92)" d="M 51.543182 200.265147 
L 54.617562 174.646494 
L 57.691942 215.695101 
L 60.766322 216.266732 
L 63.840702 202.750952 
L 66.915083 216.272803 
L 69.989463 134.937817 
L 73.063843 217.331195 
L 76.138223 217.795471 
L 79.212603 201.982088 
L 82.286983 217.795471 
L 85.361364 217.795249 
L 88.435744 217.932717 
L 91.510124 200.783304 
L 94.584504 217.868767 
L 97.658884 217.977812 
L 100.733264 218.176753 
L 103.807645 217.983445 
L 106.882025 218.144789 
L 109.956405 92.971503 
L 113.030785 218.143689 
L 116.105165 214.784515 
L 119.179545 218.193849 
L 122.253926 215.798457 
L 125.328306 218.089597 
L 128.402686 218.182992 
L 131.477066 218.144871 
L 134.551446 214.961287 
L 137.625826 218.19493 
L 140.700207 215.136984 
L 143.774587 218.193792 
L 146.848967 218.18414 
L 149.923347 218.19869 
L 152.997727 218.206743 
L 156.072107 218.253458 
L 159.146488 218.101341 
L 162.220868 218.101169 
L 165.295248 218.183538 
L 168.369628 112.281297 
L 171.444008 218.235367 
L 174.518388 214.876872 
L 177.592769 218.251152 
L 180.667149 217.344709 
L 183.741529 218.237711 
L 186.815909 217.182558 
L 189.890289 218.253851 
L 192.964669 218.25382 
L 196.03905 218.253274 
L 199.11343 218.255408 
L 202.18781 214.805433 
L 205.26219 218.219292 
L 208.33657 218.254169 
L 211.41095 218.254305 
L 214.485331 218.253556 
L 217.559711 218.254917 
L 220.634091 217.947981 
L 223.708471 218.253687 
L 226.782851 218.254515 
L 229.857231 218.254588 
L 232.931612 217.982151 
L 236.005992 218.254507 
L 239.080372 218.254908 
L 242.154752 218.254854 
L 245.229132 218.255678 
L 248.303512 207.583819 
L 251.377893 218.255676 
L 254.452273 218.251868 
L 257.526653 207.879169 
L 260.601033 218.254855 
L 263.675413 218.255816 
L 266.749793 218.060018 
L 269.824174 218.234121 
L 272.898554 218.256294 
L 275.972934 218.256017 
L 279.047314 20.583636 
L 282.121694 218.255969 
L 285.196074 218.256351 
L 288.270455 218.22313 
L 291.344835 214.927567 
L 294.419215 218.022126 
L 297.493595 218.256138 
L 300.567975 218.256317 
L 303.642355 218.256332 
L 306.716736 218.25634 
L 309.791116 112.832861 
L 312.865496 217.559555 
L 315.939876 218.024078 
L 319.014256 215.731844 
L 322.088636 218.256185 
L 325.163017 218.25635 
L 328.237397 218.02635 
L 331.311777 218.256329 
L 334.386157 218.256343 
L 337.460537 218.256354 
L 340.534917 112.788541 
L 343.609298 112.291435 
L 346.683678 218.201142 
L 349.758058 218.256364 
L 352.832438 218.256364 
L 355.906818 112.858157 
" style="fill:none;stroke:#ff7f0e;stroke-linecap:square;stroke-width:1.5;"/>
   </g>
   <g id="patch_3">
    <path d="M 36.325 228.14 
L 36.325 10.7 
" style="fill:none;stroke:#000000;stroke-linecap:square;stroke-linejoin:miter;stroke-width:0.8;"/>
   </g>
   <g id="patch_4">
    <path d="M 371.125 228.14 
L 371.125 10.7 
" style="fill:none;stroke:#000000;stroke-linecap:square;stroke-linejoin:miter;stroke-width:0.8;"/>
   </g>
   <g id="patch_5">
    <path d="M 36.325 228.14 
L 371.125 228.14 
" style="fill:none;stroke:#000000;stroke-linecap:square;stroke-linejoin:miter;stroke-width:0.8;"/>
   </g>
   <g id="patch_6">
    <path d="M 36.325 10.7 
L 371.125 10.7 
" style="fill:none;stroke:#000000;stroke-linecap:square;stroke-linejoin:miter;stroke-width:0.8;"/>
   </g>
   <g id="legend_1">
    <g id="patch_7">
     <path d="M 43.325 47.29375 
L 155.325 47.29375 
Q 157.325 47.29375 157.325 45.29375 
L 157.325 17.7 
Q 157.325 15.7 155.325 15.7 
L 43.325 15.7 
Q 41.325 15.7 41.325 17.7 
L 41.325 45.29375 
Q 41.325 47.29375 43.325 47.29375 
z
" style="fill:#ffffff;opacity:0.8;stroke:#cccccc;stroke-linejoin:miter;"/>
    </g>
    <g id="line2d_16">
     <path d="M 45.325 24.246875 
L 65.325 24.246875 
" style="fill:none;stroke:#1f77b4;stroke-linecap:square;stroke-width:1.5;"/>
    </g>
    <g id="line2d_17"/>
    <g id="text_16">
     <!-- 我就是试试 -->
     <defs>
      <path d="M 44.53125 76.953125 
Q 48.4375 71.484375 49.609375 69.53125 
Q 46.09375 68.359375 34.765625 66.015625 
L 34.765625 51.171875 
L 55.078125 51.171875 
Q 55.078125 61.71875 54.6875 80.46875 
Q 58.984375 79.6875 63.28125 79.6875 
Q 62.5 73.828125 62.5 66.40625 
L 62.5 51.171875 
L 80.078125 51.171875 
Q 85.9375 51.171875 93.75 51.5625 
L 93.75 44.53125 
Q 85.9375 44.921875 80.46875 44.921875 
L 62.890625 44.921875 
Q 64.0625 26.171875 67.96875 17.96875 
Q 76.171875 25.78125 82.03125 41.015625 
Q 85.15625 38.28125 90.234375 35.9375 
Q 87.109375 32.421875 82.03125 24.40625 
Q 76.953125 16.40625 71.484375 10.9375 
Q 74.609375 6.25 78.125 3.125 
Q 81.640625 0 83.78125 -0.578125 
Q 85.9375 -1.171875 86.90625 1.75 
Q 87.890625 4.6875 88.28125 10.15625 
Q 92.1875 7.421875 96.484375 5.46875 
Q 93.359375 -5.46875 89.84375 -8.203125 
Q 86.328125 -10.9375 79.6875 -7.421875 
Q 73.046875 -3.90625 66.015625 5.859375 
Q 52.734375 -3.515625 44.921875 -7.421875 
Q 42.578125 -3.125 39.0625 -0.390625 
Q 50.78125 3.515625 62.109375 12.5 
Q 56.640625 23.4375 55.46875 44.921875 
L 34.765625 44.921875 
L 34.765625 29.6875 
Q 43.75 31.640625 48.4375 33.59375 
Q 48.828125 29.6875 49.21875 26.171875 
Q 44.140625 25 34.765625 22.65625 
L 34.765625 2.734375 
Q 35.15625 -4.6875 30.078125 -6.828125 
Q 25 -8.984375 18.359375 -10.15625 
Q 17.96875 -5.859375 14.453125 -1.171875 
Q 22.265625 -1.171875 24.796875 -0.1875 
Q 27.34375 0.78125 27.34375 4.296875 
L 27.34375 20.703125 
Q 12.5 16.796875 7.8125 15.234375 
Q 7.421875 20.703125 5.46875 24.21875 
Q 12.5 25 27.34375 28.125 
L 27.34375 44.921875 
Q 12.109375 44.921875 6.25 44.53125 
L 6.25 51.5625 
Q 12.5 51.171875 27.34375 51.171875 
L 27.34375 64.0625 
L 10.9375 60.546875 
Q 9.765625 64.84375 7.8125 67.96875 
Q 13.671875 67.96875 25.96875 70.703125 
Q 38.28125 73.4375 44.53125 76.953125 
z
M 73.4375 75.78125 
Q 83.59375 66.40625 87.890625 61.71875 
Q 84.765625 59.375 81.640625 56.25 
Q 75.390625 64.84375 68.359375 70.3125 
Q 71.484375 73.046875 73.4375 75.78125 
z
" id="SimHei-25105"/>
      <path d="M 47.65625 52.34375 
Q 47.265625 44.53125 47.265625 39.0625 
Q 47.265625 33.984375 47.65625 27.34375 
L 33.984375 27.34375 
L 33.984375 0.390625 
Q 33.984375 -5.46875 30.65625 -7.21875 
Q 27.34375 -8.984375 18.75 -9.765625 
Q 18.359375 -4.6875 15.625 -1.5625 
Q 25 -1.953125 26.171875 -0.78125 
Q 27.34375 0.390625 27.34375 3.90625 
L 27.34375 27.34375 
L 11.328125 27.34375 
Q 11.71875 33.984375 11.71875 40.234375 
Q 11.71875 46.875 11.328125 52.34375 
L 47.65625 52.34375 
z
M 71.484375 80.46875 
Q 70.3125 71.484375 70.3125 52.34375 
L 83.984375 52.34375 
Q 87.5 52.34375 93.359375 52.734375 
L 93.359375 45.703125 
Q 88.671875 46.09375 84.375 46.09375 
L 70.3125 46.09375 
Q 69.53125 32.8125 67.765625 23.234375 
Q 66.015625 13.671875 61.90625 6.25 
Q 57.8125 -1.171875 49.21875 -10.546875 
Q 46.484375 -7.421875 42.1875 -5.46875 
Q 48.828125 -0.390625 52.921875 5.65625 
Q 57.03125 11.71875 59.171875 18.15625 
Q 61.328125 24.609375 62.109375 31.4375 
Q 62.890625 38.28125 63.28125 46.09375 
Q 57.8125 46.09375 51.5625 45.703125 
L 51.5625 52.734375 
Q 56.25 52.34375 63.28125 52.34375 
Q 63.671875 67.578125 63.28125 81.25 
L 71.484375 80.46875 
z
M 78.515625 38.28125 
Q 78.125 31.640625 78.125 25 
L 78.125 2.734375 
Q 78.515625 -0.78125 80.46875 -0.96875 
Q 82.421875 -1.171875 84.765625 -1.171875 
Q 87.109375 -1.171875 87.890625 1.359375 
Q 88.671875 3.90625 89.0625 9.765625 
Q 91.796875 7.03125 96.875 5.859375 
Q 94.53125 -3.125 92.578125 -5.265625 
Q 90.625 -7.421875 86.515625 -7.8125 
Q 82.421875 -8.203125 76.75 -7.421875 
Q 71.09375 -6.640625 71.09375 1.5625 
L 71.09375 23.046875 
Q 71.09375 31.25 70.703125 38.28125 
L 78.515625 38.28125 
z
M 40.625 33.203125 
L 40.625 46.484375 
L 18.75 46.484375 
L 18.75 33.203125 
z
M 40.234375 65.625 
Q 46.484375 65.625 54.296875 66.015625 
L 54.296875 59.375 
Q 46.484375 59.765625 40.234375 59.765625 
L 18.359375 59.765625 
Q 11.71875 59.765625 5.46875 59.375 
L 5.46875 66.015625 
Q 11.328125 65.625 18.359375 65.625 
z
M 22.265625 19.140625 
Q 19.921875 16.015625 17.1875 11.328125 
Q 14.453125 6.640625 10.9375 0.78125 
Q 7.8125 3.125 3.90625 5.078125 
Q 8.984375 10.546875 14.84375 23.046875 
Q 18.359375 21.09375 22.265625 19.140625 
z
M 42.1875 24.609375 
Q 46.875 18.359375 51.953125 9.375 
Q 48.828125 7.8125 45.3125 5.078125 
Q 42.578125 12.109375 36.328125 20.3125 
Q 39.0625 22.265625 42.1875 24.609375 
z
M 81.25 74.21875 
Q 89.0625 62.890625 91.40625 59.375 
Q 87.109375 57.8125 84.375 55.46875 
Q 82.03125 60.546875 75 70.3125 
Q 77.734375 71.875 81.25 74.21875 
z
M 26.171875 82.03125 
Q 32.8125 75 36.328125 70.3125 
Q 32.421875 67.96875 30.078125 66.015625 
Q 26.5625 71.875 20.3125 77.734375 
Q 24.21875 80.078125 26.171875 82.03125 
z
" id="SimHei-23601"/>
      <path d="M 79.296875 78.125 
Q 78.90625 72.265625 78.90625 61.71875 
Q 78.90625 51.5625 79.296875 42.578125 
L 21.09375 42.578125 
Q 21.484375 51.5625 21.484375 61.71875 
Q 21.484375 72.265625 21.09375 78.125 
L 79.296875 78.125 
z
M 79.296875 35.546875 
Q 85.9375 35.546875 94.140625 35.9375 
L 94.140625 28.90625 
Q 85.9375 29.296875 79.296875 29.296875 
L 54.296875 29.296875 
L 54.296875 19.53125 
Q 77.34375 19.53125 84.375 19.921875 
L 84.375 12.890625 
Q 77.34375 13.28125 54.296875 13.28125 
L 54.296875 1.5625 
Q 61.71875 0.390625 72.65625 0.390625 
Q 83.59375 0.390625 96.875 1.953125 
Q 93.75 -2.34375 92.96875 -7.421875 
L 73.046875 -7.421875 
Q 64.453125 -7.421875 57.03125 -6.4375 
Q 49.609375 -5.46875 42.375 -2.734375 
Q 35.15625 0 26.953125 7.03125 
Q 25.390625 3.90625 22.453125 -0.1875 
Q 19.53125 -4.296875 13.671875 -10.15625 
Q 9.765625 -7.03125 5.859375 -4.6875 
Q 13.671875 0 18.75 8.984375 
Q 23.828125 17.96875 24.609375 25.78125 
L 33.984375 23.046875 
Q 32.8125 21.484375 30.078125 14.0625 
Q 37.109375 6.640625 46.875 3.515625 
L 46.875 29.296875 
L 21.875 29.296875 
Q 14.84375 29.296875 7.03125 28.90625 
L 7.03125 35.9375 
Q 15.234375 35.546875 21.875 35.546875 
z
M 71.09375 49.21875 
L 71.09375 57.421875 
L 29.296875 57.421875 
L 29.296875 49.21875 
z
M 71.09375 64.0625 
L 71.09375 71.875 
L 29.296875 71.875 
L 29.296875 64.0625 
z
" id="SimHei-26159"/>
      <path d="M 61.71875 59.765625 
Q 61.328125 67.578125 61.328125 71.09375 
Q 61.328125 75 60.9375 81.640625 
Q 65.625 80.46875 69.53125 80.078125 
Q 69.140625 75.390625 69.140625 71.875 
L 69.140625 59.765625 
L 80.46875 59.765625 
Q 85.9375 59.765625 91.796875 60.15625 
L 91.796875 53.125 
Q 86.328125 53.515625 80.078125 53.515625 
L 69.53125 53.515625 
Q 70.3125 42.96875 71.671875 34.5625 
Q 73.046875 26.171875 75.578125 17.375 
Q 78.125 8.59375 81.4375 3.515625 
Q 84.765625 -1.5625 85.9375 3.125 
Q 87.109375 7.8125 87.5 14.0625 
Q 90.625 9.765625 95.3125 8.203125 
Q 93.359375 -4.296875 89.84375 -7.609375 
Q 86.328125 -10.9375 82.03125 -8.390625 
Q 77.734375 -5.859375 74.015625 0.96875 
Q 70.3125 7.8125 67.765625 16.796875 
Q 65.234375 25.78125 64.0625 35.34375 
Q 62.890625 44.921875 62.109375 53.515625 
L 43.75 53.515625 
Q 35.9375 53.515625 29.296875 53.125 
L 29.296875 60.15625 
Q 35.546875 59.765625 43.359375 59.765625 
z
M 23.4375 49.609375 
Q 23.046875 41.796875 23.046875 33.984375 
L 23.046875 9.765625 
Q 28.515625 14.84375 33.203125 19.140625 
Q 34.765625 15.625 37.109375 12.5 
Q 29.6875 6.640625 17.578125 -5.46875 
Q 15.625 -1.953125 12.890625 0.78125 
Q 16.015625 2.734375 16.015625 8.203125 
L 16.015625 42.578125 
Q 9.765625 42.578125 4.6875 42.1875 
L 4.6875 50 
Q 9.765625 49.609375 12.890625 49.609375 
z
M 58.984375 33.984375 
Q 54.6875 34.375 50.78125 34.375 
L 50.78125 8.984375 
Q 55.859375 10.546875 60.9375 12.5 
Q 60.9375 8.203125 61.71875 5.078125 
Q 55.859375 3.90625 49.21875 1.953125 
Q 42.578125 0 35.546875 -2.734375 
Q 34.375 1.5625 31.640625 4.6875 
Q 37.890625 5.46875 43.75 7.421875 
L 43.75 34.375 
Q 39.453125 34.375 34.765625 33.984375 
L 34.765625 41.40625 
Q 40.625 41.015625 46.875 41.015625 
Q 53.515625 41.015625 58.984375 41.40625 
z
M 14.453125 77.734375 
Q 19.921875 72.65625 26.5625 64.0625 
Q 23.828125 61.328125 20.703125 58.984375 
Q 18.359375 63.28125 8.984375 72.65625 
Q 12.109375 75.390625 14.453125 77.734375 
z
M 80.46875 80.46875 
Q 83.203125 78.125 91.40625 68.359375 
Q 87.109375 65.625 84.765625 63.28125 
Q 80.078125 70.703125 74.609375 76.171875 
Q 76.953125 77.734375 80.46875 80.46875 
z
" id="SimHei-35797"/>
     </defs>
     <g transform="translate(73.325 27.746875)scale(0.1 -0.1)">
      <use xlink:href="#SimHei-25105"/>
      <use x="100" xlink:href="#SimHei-23601"/>
      <use x="200" xlink:href="#SimHei-26159"/>
      <use x="300" xlink:href="#SimHei-35797"/>
      <use x="400" xlink:href="#SimHei-35797"/>
     </g>
    </g>
    <g id="line2d_18">
     <path d="M 45.325 38.54375 
L 65.325 38.54375 
" style="fill:none;stroke:#ff7f0e;stroke-linecap:square;stroke-width:1.5;"/>
    </g>
    <g id="line2d_19"/>
    <g id="text_17">
     <!-- 也没指望有啥结果 -->
     <defs>
      <path d="M 21.09375 46.09375 
Q 21.09375 58.203125 20.703125 70.703125 
L 29.296875 70.703125 
Q 28.90625 59.765625 28.90625 48.046875 
L 47.265625 53.125 
L 47.265625 64.84375 
Q 47.265625 73.046875 46.875 80.46875 
L 55.859375 80.46875 
Q 55.46875 73.4375 55.46875 66.796875 
L 55.46875 55.46875 
L 85.15625 64.0625 
Q 83.984375 55.859375 83.59375 49.609375 
Q 82.421875 34.765625 81.640625 28.3125 
Q 80.859375 21.875 77.34375 19.71875 
Q 73.828125 17.578125 63.671875 16.015625 
Q 62.5 20.703125 60.546875 25 
Q 69.921875 25 71.671875 26.171875 
Q 73.4375 27.34375 73.828125 31.25 
L 75.78125 53.515625 
L 55.46875 48.046875 
L 55.46875 30.46875 
Q 55.46875 20.3125 55.859375 10.546875 
L 46.875 10.546875 
Q 47.265625 19.921875 47.265625 30.46875 
L 47.265625 45.703125 
L 28.90625 40.625 
L 28.90625 8.984375 
Q 28.90625 1.5625 35.9375 1.171875 
L 79.6875 1.171875 
Q 83.203125 1.171875 84.171875 3.515625 
Q 85.15625 5.859375 85.9375 15.625 
Q 91.015625 12.5 95.703125 11.71875 
Q 93.359375 -1.171875 90.625 -3.515625 
Q 87.890625 -5.859375 80.078125 -5.859375 
L 32.8125 -5.859375 
Q 21.484375 -5.859375 21.09375 7.03125 
L 21.09375 38.28125 
Q 11.71875 35.546875 8.59375 34.375 
L 6.640625 42.1875 
Q 10.15625 42.96875 21.09375 46.09375 
z
" id="SimHei-20063"/>
      <path d="M 85.15625 37.109375 
Q 82.8125 30.46875 78.703125 23.046875 
Q 74.609375 15.625 68.359375 8.984375 
Q 72.65625 5.859375 81.046875 2.53125 
Q 89.453125 -0.78125 94.140625 -1.5625 
Q 91.40625 -4.6875 89.0625 -9.375 
Q 80.859375 -6.25 74.796875 -3.125 
Q 68.75 0 62.890625 4.296875 
Q 51.953125 -3.90625 34.375 -9.375 
Q 33.203125 -5.46875 29.6875 -1.5625 
Q 45.703125 0.78125 57.421875 8.59375 
Q 47.65625 17.578125 42.96875 30.859375 
Q 40.625 30.859375 37.890625 30.859375 
L 37.890625 37.5 
Q 44.921875 37.109375 51.171875 37.109375 
z
M 78.515625 75.78125 
Q 78.125 69.921875 78.125 64.0625 
L 78.125 53.90625 
Q 78.125 50.390625 83.59375 50.390625 
L 94.53125 50.78125 
Q 92.1875 46.484375 92.578125 43.75 
L 78.90625 43.75 
Q 71.484375 43.75 70.703125 51.171875 
L 70.703125 69.53125 
L 51.171875 69.53125 
Q 51.171875 58.59375 48.4375 52.140625 
Q 45.703125 45.703125 37.109375 38.671875 
Q 35.546875 41.40625 31.25 44.53125 
Q 41.40625 49.609375 42.96875 58.203125 
Q 44.53125 66.796875 43.75 75.78125 
L 78.515625 75.78125 
z
M 6.640625 -2.34375 
Q 12.5 5.078125 17.375 14.453125 
Q 22.265625 23.828125 25 31.640625 
Q 28.515625 28.90625 32.03125 26.5625 
Q 29.296875 22.65625 24.21875 12.109375 
Q 19.140625 1.5625 14.84375 -7.8125 
Q 10.15625 -3.90625 6.640625 -2.34375 
z
M 50.78125 31.25 
Q 54.296875 20.703125 62.890625 12.890625 
Q 69.921875 19.53125 74.609375 31.25 
L 51.171875 31.25 
z
M 17.96875 80.078125 
Q 26.5625 74.21875 36.328125 66.015625 
Q 32.421875 63.28125 30.46875 60.15625 
Q 21.875 68.359375 12.890625 74.21875 
Q 15.625 76.953125 17.96875 80.078125 
z
M 11.328125 58.59375 
Q 19.921875 52.34375 28.515625 44.921875 
Q 25.78125 42.578125 22.65625 39.0625 
Q 15.625 46.484375 6.25 52.34375 
Q 9.375 55.859375 11.328125 58.59375 
z
" id="SimHei-27809"/>
      <path d="M 87.890625 34.765625 
Q 87.5 30.078125 87.5 21.09375 
L 87.5 4.6875 
Q 87.5 -3.515625 87.890625 -8.203125 
L 80.078125 -8.203125 
L 80.078125 -1.953125 
L 51.5625 -1.953125 
L 51.5625 -9.765625 
L 43.75 -9.765625 
Q 44.140625 -4.6875 44.140625 4.6875 
L 44.140625 21.09375 
Q 44.140625 30.078125 43.75 34.765625 
L 87.890625 34.765625 
z
M 7.8125 0.390625 
Q 16.796875 -0.390625 18.359375 0.578125 
Q 19.921875 1.5625 19.921875 4.296875 
L 19.921875 26.171875 
Q 16.40625 25 14.453125 24.015625 
Q 12.5 23.046875 7.421875 19.921875 
Q 6.25 23.828125 3.515625 28.125 
Q 9.765625 29.6875 12.890625 30.859375 
Q 16.015625 32.03125 19.921875 33.203125 
L 19.921875 51.5625 
L 17.1875 51.5625 
Q 12.109375 51.5625 7.03125 51.171875 
L 7.03125 58.203125 
Q 11.71875 57.8125 17.1875 57.8125 
L 19.921875 57.8125 
L 19.921875 69.53125 
Q 19.921875 75 19.53125 80.078125 
L 27.734375 80.078125 
Q 27.34375 75.78125 27.34375 69.53125 
L 27.34375 57.8125 
Q 32.421875 57.8125 37.890625 58.203125 
L 37.890625 51.171875 
Q 32.03125 51.5625 27.34375 51.5625 
L 27.34375 36.328125 
Q 28.90625 36.71875 31.640625 37.890625 
L 37.109375 40.234375 
Q 36.71875 35.9375 37.109375 32.8125 
Q 34.765625 32.03125 32.21875 31.046875 
Q 29.6875 30.078125 27.34375 28.90625 
L 27.34375 1.5625 
Q 26.953125 -3.125 24.609375 -5.265625 
Q 22.265625 -7.421875 10.546875 -8.203125 
Q 9.765625 -3.90625 7.8125 0.390625 
z
M 51.953125 78.515625 
Q 51.5625 73.046875 51.5625 64.453125 
Q 64.453125 66.796875 70.5 68.9375 
Q 76.5625 71.09375 81.640625 73.828125 
Q 83.203125 69.921875 87.109375 66.40625 
Q 85.15625 66.015625 81.828125 65.234375 
Q 78.515625 64.453125 73.828125 63.28125 
Q 69.140625 62.109375 63.078125 60.734375 
Q 57.03125 59.375 51.5625 58.203125 
L 51.5625 49.609375 
Q 51.171875 45.703125 57.8125 45.703125 
L 76.953125 45.703125 
Q 82.8125 45.703125 84.171875 48.234375 
Q 85.546875 50.78125 86.71875 56.25 
Q 89.84375 53.125 94.53125 51.5625 
Q 91.015625 42.578125 89.0625 41.203125 
Q 87.109375 39.84375 82.421875 39.453125 
L 52.34375 39.453125 
Q 47.65625 39.453125 45.890625 41.984375 
Q 44.140625 44.53125 44.140625 46.484375 
L 44.140625 64.453125 
Q 44.140625 74.609375 43.75 78.515625 
z
M 80.078125 4.296875 
L 80.078125 13.671875 
L 51.5625 13.671875 
L 51.5625 4.296875 
z
M 80.078125 19.53125 
L 80.078125 28.515625 
L 51.5625 28.515625 
L 51.5625 19.53125 
z
" id="SimHei-25351"/>
      <path d="M 76.171875 30.078125 
Q 82.421875 30.078125 89.0625 30.46875 
L 89.0625 23.4375 
Q 82.421875 23.828125 76.171875 23.828125 
L 53.90625 23.828125 
L 53.90625 14.84375 
L 70.703125 14.84375 
Q 77.734375 14.84375 85.9375 15.234375 
L 85.9375 8.203125 
Q 77.734375 8.59375 70.703125 8.59375 
L 53.90625 8.59375 
L 53.90625 -0.78125 
L 81.25 -0.78125 
Q 87.109375 -0.78125 94.140625 -0.390625 
L 94.140625 -7.421875 
Q 87.5 -7.03125 81.25 -7.03125 
L 20.703125 -7.03125 
Q 13.671875 -7.03125 6.640625 -7.421875 
L 6.640625 -0.390625 
Q 13.671875 -0.78125 20.703125 -0.78125 
L 46.484375 -0.78125 
L 46.484375 8.59375 
L 30.46875 8.59375 
Q 23.046875 8.59375 14.84375 8.203125 
L 14.84375 15.234375 
Q 23.046875 14.84375 30.46875 14.84375 
L 46.484375 14.84375 
L 46.484375 23.828125 
L 26.5625 23.828125 
Q 19.140625 23.828125 11.328125 23.4375 
L 11.328125 30.46875 
Q 19.140625 30.078125 26.5625 30.078125 
z
M 87.890625 78.125 
Q 87.5 69.921875 87.5 62.109375 
L 87.5 39.0625 
Q 87.890625 32.03125 73.828125 31.25 
Q 73.4375 34.765625 70.703125 39.453125 
Q 77.734375 39.0625 79.09375 39.453125 
Q 80.46875 39.84375 80.46875 42.578125 
L 80.46875 46.484375 
L 58.203125 46.484375 
Q 55.859375 38.671875 48.4375 30.859375 
Q 45.703125 33.59375 41.796875 35.9375 
Q 47.265625 40.625 49.609375 45.109375 
Q 51.953125 49.609375 52.53125 54.6875 
Q 53.125 59.765625 53.125 65.625 
Q 53.125 71.484375 52.734375 78.125 
L 87.890625 78.125 
z
M 15.234375 38.671875 
Q 15.625 47.65625 15.625 53.125 
L 15.625 63.671875 
Q 11.71875 63.671875 6.25 63.28125 
L 6.25 70.3125 
Q 13.28125 69.921875 19.53125 69.921875 
L 25.78125 69.921875 
Q 24.609375 73.828125 22.65625 80.078125 
Q 26.5625 80.46875 30.46875 81.640625 
Q 31.640625 76.953125 33.59375 69.921875 
Q 38.671875 69.921875 47.265625 70.3125 
L 47.265625 63.28125 
Q 38.671875 63.671875 33.203125 63.671875 
L 22.65625 63.671875 
L 22.65625 47.265625 
L 44.140625 51.171875 
L 44.140625 44.53125 
z
M 80.46875 52.734375 
L 80.46875 59.765625 
L 59.765625 59.765625 
L 59.375 52.734375 
z
M 80.46875 66.015625 
L 80.46875 72.265625 
L 60.15625 72.265625 
L 60.15625 66.015625 
z
" id="SimHei-26395"/>
      <path d="M 4.296875 25.390625 
Q 13.28125 30.859375 21.875 39.640625 
Q 30.46875 48.4375 37.5 61.328125 
L 23.4375 61.328125 
Q 17.96875 61.328125 9.765625 60.9375 
L 9.765625 68.359375 
Q 19.921875 67.96875 25 67.96875 
L 39.84375 67.96875 
Q 42.96875 77.34375 43.359375 81.640625 
Q 49.21875 80.078125 52.734375 79.296875 
Q 51.5625 78.125 48.828125 67.96875 
L 80.46875 67.96875 
Q 87.109375 67.96875 94.140625 68.359375 
L 94.140625 60.9375 
Q 87.109375 61.328125 81.640625 61.328125 
L 46.484375 61.328125 
Q 43.75 56.25 40.625 51.171875 
L 85.546875 51.171875 
Q 85.15625 41.40625 85.15625 33.59375 
L 85.15625 1.953125 
Q 85.15625 -3.515625 82.03125 -6.046875 
Q 78.90625 -8.59375 68.75 -9.375 
Q 68.359375 -5.078125 66.015625 0 
Q 71.875 -0.78125 74.609375 -0.390625 
Q 77.34375 0 77.34375 3.90625 
L 77.34375 11.71875 
L 36.71875 11.71875 
L 36.71875 -8.984375 
L 28.125 -8.984375 
Q 28.515625 0.78125 28.515625 7.8125 
L 28.515625 35.546875 
Q 20.3125 26.171875 11.328125 19.140625 
Q 9.765625 21.875 4.296875 25.390625 
z
M 77.34375 33.984375 
L 77.34375 44.921875 
L 36.71875 44.921875 
L 36.71875 33.984375 
z
M 77.34375 17.96875 
L 77.34375 27.734375 
L 36.71875 27.734375 
L 36.71875 17.96875 
z
" id="SimHei-26377"/>
      <path d="M 67.578125 76.5625 
Q 70.3125 70.703125 76.953125 63.671875 
Q 83.59375 56.640625 96.875 54.296875 
Q 94.53125 51.953125 91.40625 45.703125 
Q 83.203125 48.4375 77.34375 53.125 
L 77.34375 48.046875 
L 67.578125 48.046875 
L 67.578125 37.890625 
Q 83.984375 37.890625 92.1875 38.28125 
L 92.1875 31.640625 
Q 85.15625 32.03125 67.578125 32.03125 
L 67.578125 21.875 
L 85.15625 21.875 
Q 84.765625 16.015625 84.765625 6.25 
Q 84.765625 -3.515625 85.15625 -10.15625 
L 77.734375 -10.15625 
L 77.734375 -4.6875 
L 51.171875 -4.6875 
L 51.171875 -10.9375 
L 44.140625 -10.9375 
Q 44.53125 -5.078125 44.53125 5.46875 
Q 44.53125 16.015625 44.140625 21.875 
L 60.9375 21.875 
L 60.9375 32.03125 
Q 44.921875 32.03125 38.671875 31.640625 
L 38.671875 38.28125 
Q 44.921875 37.890625 60.9375 37.890625 
L 60.9375 48.046875 
L 51.171875 48.046875 
L 51.171875 53.515625 
Q 45.703125 46.484375 41.40625 43.359375 
Q 38.671875 47.65625 34.375 49.21875 
Q 39.453125 52.34375 48.046875 62.296875 
Q 56.640625 72.265625 58.984375 82.03125 
L 69.921875 79.296875 
z
M 33.203125 69.53125 
Q 32.8125 60.9375 32.8125 52.734375 
L 32.8125 23.4375 
Q 32.8125 16.40625 33.203125 7.421875 
L 25.78125 7.421875 
L 25.78125 16.015625 
L 14.84375 16.015625 
L 14.84375 0 
L 7.8125 0 
Q 8.203125 7.8125 8.203125 16.40625 
L 8.203125 52.734375 
Q 8.203125 60.9375 7.8125 69.53125 
L 33.203125 69.53125 
z
M 25.78125 21.875 
L 25.78125 63.671875 
L 14.84375 63.671875 
L 14.84375 21.875 
z
M 77.734375 1.171875 
L 77.734375 16.015625 
L 51.171875 16.015625 
L 51.171875 1.171875 
z
M 76.171875 53.90625 
Q 69.921875 59.765625 63.671875 71.09375 
Q 58.59375 61.71875 51.953125 53.90625 
z
" id="SimHei-21861"/>
      <path d="M 89.453125 30.078125 
Q 89.0625 25 89.0625 18.75 
L 89.0625 5.46875 
Q 89.0625 -1.953125 89.453125 -7.421875 
L 81.640625 -7.421875 
L 81.640625 0 
L 55.078125 0 
L 55.078125 -8.203125 
L 47.265625 -8.203125 
Q 47.65625 1.953125 47.65625 5.078125 
L 47.65625 19.53125 
Q 47.65625 24.21875 47.265625 30.078125 
L 89.453125 30.078125 
z
M 29.6875 75.78125 
Q 26.5625 71.875 23.046875 65.625 
Q 19.53125 59.375 14.453125 50 
Q 23.046875 50.390625 26.953125 50.390625 
Q 30.46875 56.640625 32.8125 62.5 
Q 36.71875 59.765625 41.40625 57.421875 
Q 39.453125 55.859375 34.5625 48.828125 
Q 29.6875 41.796875 19.140625 25.78125 
Q 32.03125 27.734375 39.453125 28.90625 
Q 38.28125 24.609375 38.28125 21.484375 
Q 34.765625 21.09375 25.78125 19.921875 
Q 16.796875 18.75 8.203125 16.40625 
Q 6.640625 20.3125 5.46875 24.21875 
Q 10.15625 25.390625 14.84375 31.4375 
Q 19.53125 37.5 23.046875 44.140625 
Q 20.3125 44.140625 15.03125 43.546875 
Q 9.765625 42.96875 5.859375 41.796875 
Q 4.6875 45.703125 3.515625 49.21875 
Q 7.8125 52.734375 12.6875 61.328125 
Q 17.578125 69.921875 20.3125 80.078125 
Q 25 77.734375 29.6875 75.78125 
z
M 63.671875 65.234375 
Q 63.671875 71.875 63.28125 80.859375 
L 71.484375 80.859375 
Q 71.09375 73.828125 71.09375 65.234375 
L 82.421875 65.234375 
Q 89.84375 65.234375 96.09375 65.625 
L 96.09375 58.59375 
Q 89.84375 58.984375 82.8125 58.984375 
L 71.09375 58.984375 
L 71.09375 46.09375 
L 80.078125 46.09375 
Q 85.546875 46.09375 91.015625 46.484375 
L 91.015625 39.453125 
Q 86.328125 39.84375 79.6875 39.84375 
L 57.03125 39.84375 
Q 50.390625 39.84375 45.3125 39.453125 
L 45.3125 46.484375 
Q 50.390625 46.09375 56.25 46.09375 
L 63.671875 46.09375 
L 63.671875 58.984375 
L 55.078125 58.984375 
Q 48.046875 58.984375 41.796875 58.59375 
L 41.796875 65.625 
Q 46.875 65.234375 54.296875 65.234375 
z
M 81.640625 6.25 
L 81.640625 23.828125 
L 55.078125 23.828125 
L 55.078125 6.25 
z
M 40.234375 10.15625 
Q 39.0625 6.640625 39.453125 2.734375 
Q 32.03125 1.5625 22.65625 0 
Q 13.28125 -1.5625 6.640625 -3.515625 
Q 5.078125 1.5625 3.515625 5.46875 
Q 11.71875 5.859375 18.359375 6.828125 
Q 25 7.8125 40.234375 10.15625 
z
" id="SimHei-32467"/>
      <path d="M 46.484375 -8.203125 
Q 46.875 -1.171875 46.875 8.984375 
L 46.875 25 
L 45.3125 25 
Q 42.578125 19.921875 39.0625 15.625 
Q 35.546875 11.328125 31.046875 8 
Q 26.5625 4.6875 21.28125 1.5625 
Q 16.015625 -1.5625 10.546875 -3.90625 
Q 8.984375 0.390625 6.25 4.296875 
Q 10.9375 5.46875 15.234375 7.609375 
Q 19.53125 9.765625 23.828125 12.296875 
Q 28.125 14.84375 31.25 17.96875 
Q 34.375 21.09375 37.109375 25 
L 21.484375 25 
Q 15.625 25 7.03125 24.21875 
L 7.03125 32.03125 
Q 14.84375 31.25 21.484375 31.25 
L 46.875 31.25 
L 46.875 38.28125 
L 17.96875 38.28125 
Q 18.359375 47.65625 18.359375 58.984375 
Q 18.359375 70.3125 17.96875 78.125 
L 83.203125 78.125 
Q 82.8125 70.3125 82.8125 58.984375 
Q 82.8125 47.65625 83.203125 38.28125 
L 54.296875 38.28125 
L 54.296875 31.25 
L 78.90625 31.25 
Q 86.71875 31.25 92.578125 31.640625 
L 92.578125 24.21875 
Q 85.9375 25 79.6875 25 
L 64.453125 25 
Q 69.53125 16.796875 76.953125 12.5 
Q 84.375 8.203125 94.53125 5.859375 
Q 91.796875 2.34375 90.234375 -2.734375 
Q 76.953125 2.34375 69.140625 8.59375 
Q 61.328125 14.84375 57.421875 25 
L 54.296875 25 
L 54.296875 8.59375 
Q 54.296875 0 54.6875 -8.203125 
z
M 75.390625 60.546875 
L 75.390625 72.265625 
L 54.296875 72.265625 
L 54.296875 60.546875 
z
M 46.875 60.546875 
L 46.875 72.265625 
L 26.171875 72.265625 
L 26.171875 60.546875 
z
M 75.390625 44.140625 
L 75.390625 54.6875 
L 54.296875 54.6875 
L 54.296875 44.140625 
z
M 46.875 44.140625 
L 46.875 54.6875 
L 26.171875 54.6875 
L 26.171875 44.140625 
z
" id="SimHei-26524"/>
     </defs>
     <g transform="translate(73.325 42.04375)scale(0.1 -0.1)">
      <use xlink:href="#SimHei-20063"/>
      <use x="100" xlink:href="#SimHei-27809"/>
      <use x="200" xlink:href="#SimHei-25351"/>
      <use x="300" xlink:href="#SimHei-26395"/>
      <use x="400" xlink:href="#SimHei-26377"/>
      <use x="500" xlink:href="#SimHei-21861"/>
      <use x="600" xlink:href="#SimHei-32467"/>
      <use x="700" xlink:href="#SimHei-26524"/>
     </g>
    </g>
   </g>
  </g>
 </g>
 <defs>
  <clipPath id="pb97c3c6e92">
   <rect height="217.44" width="334.8" x="36.325" y="10.7"/>
  </clipPath>
 </defs>
</svg>
